<svg width="57" height="57" viewBox="0 0 57 57" fill="none" xmlns="http://www.w3.org/2000/svg">
<circle cx="28.6005" cy="28.6053" r="27.1371" fill="white" stroke="#E9E9E9"/>
<path d="M25.6005 46.4055C17.1005 44.9055 10.6005 37.5055 10.6005 28.6055C10.6005 18.7055 18.7005 10.6055 28.6005 10.6055C38.5005 10.6055 46.6005 18.7055 46.6005 28.6055C46.6005 37.5055 40.1005 44.9055 31.6005 46.4055L30.6005 45.6055H26.6005L25.6005 46.4055Z" fill="url(#paint0_linear_2_685)"/>
<path d="M35.6005 33.6055L36.4005 28.6055H31.6005V25.1055C31.6005 23.7055 32.1005 22.6055 34.3005 22.6055H36.6005V18.0055C35.3005 17.8055 33.9005 17.6055 32.6005 17.6055C28.5005 17.6055 25.6005 20.1055 25.6005 24.6055V28.6055H21.1005V33.6055H25.6005V46.3055C26.6005 46.5055 27.6005 46.6055 28.6005 46.6055C29.6005 46.6055 30.6005 46.5055 31.6005 46.3055V33.6055H35.6005Z" fill="white"/>
<defs>
<linearGradient id="paint0_linear_2_685" x1="28.6005" y1="45.3595" x2="28.6005" y2="10.6055" gradientUnits="userSpaceOnUse">
<stop stop-color="#0062E0"/>
<stop offset="1" stop-color="#19AFFF"/>
</linearGradient>
</defs>
</svg>
