<svg width="57" height="57" viewBox="0 0 57 57" fill="none" xmlns="http://www.w3.org/2000/svg">
<circle cx="28.3749" cy="28.5165" r="27.1371" fill="white" stroke="#E9E9E9"/>
<path fill-rule="evenodd" clip-rule="evenodd" d="M44.6949 28.9031C44.6949 27.6976 44.5867 26.5385 44.3858 25.4258H28.3748V32.0017H37.524C37.1299 34.1267 35.9321 35.9272 34.1317 37.1326V41.3981H39.6258C42.8403 38.4385 44.6949 34.0803 44.6949 28.9031Z" fill="#4285F4"/>
<path fill-rule="evenodd" clip-rule="evenodd" d="M28.3749 45.5166C32.9649 45.5166 36.8131 43.9943 39.6258 41.398L34.1317 37.1325C32.6094 38.1525 30.6621 38.7552 28.3749 38.7552C23.9471 38.7552 20.1994 35.7648 18.8626 31.7466H13.183V36.1511C15.9803 41.7071 21.7294 45.5166 28.3749 45.5166Z" fill="#34A853"/>
<path fill-rule="evenodd" clip-rule="evenodd" d="M18.8626 31.7468C18.5226 30.7268 18.3294 29.6372 18.3294 28.5168C18.3294 27.3963 18.5226 26.3068 18.8626 25.2868V20.8822H13.183C12.0316 23.1772 11.3748 25.7736 11.3748 28.5168C11.3748 31.2599 12.0316 33.8563 13.183 36.1513L18.8626 31.7468Z" fill="#FBBC05"/>
<path fill-rule="evenodd" clip-rule="evenodd" d="M28.3749 18.2781C30.8708 18.2781 33.1117 19.1358 34.8735 20.8204L39.7494 15.9445C36.8053 13.2013 32.9571 11.5167 28.3749 11.5167C21.7294 11.5167 15.9803 15.3263 13.183 20.8822L18.8626 25.2867C20.1994 21.2686 23.9471 18.2781 28.3749 18.2781Z" fill="#EA4335"/>
</svg>
